<?xml version="1.0" encoding="UTF-8"?>
<svg width="140px" height="140px" viewBox="0 0 140 140" version="1.1" xmlns="http://www.w3.org/2000/svg" xmlns:xlink="http://www.w3.org/1999/xlink">
    <!-- Generator: Sketch 52 (66869) - http://www.bohemiancoding.com/sketch -->
    <title>Coin 5</title>
    <desc>Created with Sketch.</desc>
    <defs>
        <filter x="-19.2%" y="-19.2%" width="138.3%" height="138.3%" filterUnits="objectBoundingBox" id="filter-1">
            <feOffset dx="0" dy="2" in="SourceAlpha" result="shadowOffsetOuter1"></feOffset>
            <feGaussianBlur stdDeviation="5" in="shadowOffsetOuter1" result="shadowBlurOuter1"></feGaussianBlur>
            <feColorMatrix values="0 0 0 0 0   0 0 0 0 0   0 0 0 0 0  0 0 0 0.5 0" type="matrix" in="shadowBlurOuter1" result="shadowMatrixOuter1"></feColorMatrix>
            <feMerge>
                <feMergeNode in="shadowMatrixOuter1"></feMergeNode>
                <feMergeNode in="SourceGraphic"></feMergeNode>
            </feMerge>
        </filter>
    </defs>
    <g id="Coin-5" stroke="none" stroke-width="1" fill="none" fill-rule="evenodd">
        <g id="Group" transform="translate(10.000000, 10.000000)">
            <g id="blockchain" filter="url(#filter-1)">
                <path d="M60.7441316,20.6172064 C71.4498403,20.6172064 81.1572318,24.8095015 88.1877366,31.5789474 L103.103658,24.0156471 L103.157895,17.1665501 C92.2913157,6.7057251 77.2889833,0 60.7441316,0 L53.6842105,9.85547781 L60.7441316,20.6172064 Z" id="Path" fill="#003E9A"></path>
                <path d="M60,20.6172064 L60,0 C43.1648758,0 27.8993339,6.7057251 16.8421053,17.1665501 L16.8972933,30.8125283 L32.0749086,31.5789474 C39.2287606,24.8095015 49.1064642,20.6172064 60,20.6172064 Z" id="Path" fill="#6BA6FF"></path>
                <path d="M31.5789474,31.8122634 L17.1665501,16.8421053 C6.7057251,27.7086843 0,42.7110167 0,59.2558684 L12.1211049,66.3157895 L20.6172064,59.2558684 C20.6172064,48.5501597 24.8095015,38.8427682 31.5789474,31.8122634 Z" id="Path" fill="#003E9A"></path>
                <path d="M20.6172064,60 L0,60 C0,76.8351242 6.7057251,92.1006661 17.1665501,103.157895 L30.8125283,95.9189223 L31.5789474,87.9250914 C24.8095015,80.7712394 20.6172064,70.8935358 20.6172064,60 Z" id="Path" fill="#6BA6FF"></path>
                <path d="M59.2558684,99.3827936 C48.5501597,99.3827936 38.8427682,95.1904985 31.8122634,88.4210526 L16.8421053,102.83345 C27.7086843,113.294275 42.7110167,120 59.2558684,120 L66.3157895,111.220695 L59.2558684,99.3827936 Z" id="Path" fill="#003E9A"></path>
                <path d="M60,120 C76.8351242,120 92.1006661,113.294275 103.157895,102.83345 L97.4155441,90.6034886 L87.9250914,88.4210526 C80.7712394,95.1904985 70.8935358,99.3827936 60,99.3827936 L60,120 Z" id="Path" fill="#6BA6FF"></path>
                <path d="M120,60.7441316 L110.144522,53.6842105 L99.3827936,60.7441316 C99.3827936,71.4498403 95.1904985,81.1572318 88.4210526,88.1877366 L102.83345,103.157895 C113.294275,92.2913157 120,77.2889833 120,60.7441316 Z" id="Path" fill="#003E9A"></path>
                <path d="M99.3827936,60 L120,60 C120,43.1648758 113.294275,27.8993339 102.83345,16.8421053 L88.4210526,32.0749086 C95.1904985,39.2287606 99.3827936,49.1064642 99.3827936,60 Z" id="Path" fill="#6BA6FF"></path>
                <path d="M61.0526316,18.9473684 C37.8243787,18.9473684 18.9473684,37.8243787 18.9473684,61.0526316 C18.9473684,84.2808844 37.8243787,103.157895 61.0526316,103.157895 C84.2808844,103.157895 103.157895,84.2808844 103.157895,61.0526316 C103.157895,37.8243787 84.2808844,18.9473684 61.0526316,18.9473684 Z" id="Path" fill="#001E4A"></path>
                <path d="M103.157895,61.0526316 C103.157895,84.2808844 83.8089592,103.157895 60,103.157895 L60,18.9473684 C83.8089592,18.9473684 103.157895,37.8243787 103.157895,61.0526316 Z" id="Path" fill="#001E4A"></path>
            </g>
            <path d="M73.9057895,39.96 L73.9057895,49.32 C73.9057895,49.520001 73.8457901,49.6299999 73.7257895,49.65 C73.6057889,49.6700001 73.5057899,49.6200006 73.4257895,49.5 C72.6657857,48.6199956 70.9858025,48.18 68.3857895,48.18 L54.9457895,48.18 L54.9457895,52.38 L59.6257895,52.38 C61.5857993,52.38 63.4357808,52.7499963 65.1757895,53.49 C66.9157982,54.2300037 68.4257831,55.2499935 69.7057895,56.55 C70.9857959,57.8500065 72.0057857,59.3699913 72.7657895,61.11 C73.5257933,62.8500087 73.9057895,64.6999902 73.9057895,66.66 C73.9057895,68.66001 73.5257933,70.5299913 72.7657895,72.27 C72.0057857,74.0100087 70.9857959,75.5199936 69.7057895,76.8 C68.4257831,78.0800064 66.9157982,79.0999962 65.1757895,79.86 C63.4357808,80.6200038 61.5857993,81 59.6257895,81 L59.0257895,81 C57.3457811,81 55.755797,80.6800032 54.2557895,80.04 C52.755782,79.3999968 51.4457951,78.5200056 50.3257895,77.4 C49.2057839,76.2799944 48.3257927,74.9700075 47.6857895,73.47 C47.0457863,71.9699925 46.7257895,70.3600086 46.7257895,68.64 L56.0857895,68.64 C56.3657909,68.64 56.4457901,68.7799986 56.3257895,69.06 C56.1257885,69.4200018 56.0257895,69.7799982 56.0257895,70.14 C56.0257895,70.5000018 56.0957888,70.8299985 56.2357895,71.13 C56.3757902,71.4300015 56.5457885,71.6899989 56.7457895,71.91 C56.9457905,72.1300011 57.1457885,72.2999994 57.3457895,72.42 C57.8257919,72.6600012 58.3257869,72.78 58.8457895,72.78 L59.6257895,72.78 C60.4657937,72.78 61.2557858,72.6200016 61.9957895,72.3 C62.7357932,71.9799984 63.3757868,71.5400028 63.9157895,70.98 C64.4557922,70.4199972 64.8857879,69.7700037 65.2057895,69.03 C65.5257911,68.2899963 65.6857895,67.5000042 65.6857895,66.66 C65.6857895,65.8199958 65.5257911,65.0300037 65.2057895,64.29 C64.8857879,63.5499963 64.4557922,62.9000028 63.9157895,62.34 C63.3757868,61.7799972 62.7357932,61.3400016 61.9957895,61.02 C61.2557858,60.6999984 60.4657937,60.54 59.6257895,60.54 L46.7257895,60.54 L46.7257895,39.96 L73.9057895,39.96 Z M51.5857895,72.6 C52.0657919,72.6 52.3057895,72.3400026 52.3057895,71.82 C52.3057895,71.3399976 52.0657919,71.1 51.5857895,71.1 C51.1057871,71.1 50.8657895,71.3399976 50.8657895,71.82 C50.8657895,72.3400026 51.1057871,72.6 51.5857895,72.6 Z M55.4257895,76.56 C55.9057919,76.56 56.1457895,76.3000026 56.1457895,75.78 C56.1457895,75.2599974 55.9057919,75 55.4257895,75 C54.9057869,75 54.6457895,75.2599974 54.6457895,75.78 C54.6457895,76.3000026 54.9057869,76.56 55.4257895,76.56 Z M61.0057895,77.4 C61.5257921,77.4 61.7857895,77.1400026 61.7857895,76.62 C61.7857895,76.1399976 61.5257921,75.9 61.0057895,75.9 C60.5257871,75.9 60.2857895,76.1399976 60.2857895,76.62 C60.2857895,77.1400026 60.5257871,77.4 61.0057895,77.4 Z M69.4057895,70.14 C69.6057905,70.14 69.7757888,70.0700007 69.9157895,69.93 C70.0557902,69.7899993 70.1257895,69.620001 70.1257895,69.42 C70.1257895,68.8999974 69.8857919,68.64 69.4057895,68.64 C68.8857869,68.64 68.6257895,68.8999974 68.6257895,69.42 C68.6257895,69.620001 68.7057887,69.7899993 68.8657895,69.93 C69.0257903,70.0700007 69.2057885,70.14 69.4057895,70.14 Z M69.4057895,63.3 C68.8857869,63.3 68.6257895,63.5399976 68.6257895,64.02 C68.6257895,64.5000024 68.8857869,64.74 69.4057895,64.74 C69.6057905,64.74 69.7757888,64.6700007 69.9157895,64.53 C70.0557902,64.3899993 70.1257895,64.220001 70.1257895,64.02 C70.1257895,63.819999 70.0557902,63.6500007 69.9157895,63.51 C69.7757888,63.3699993 69.6057905,63.3 69.4057895,63.3 Z M67.1257895,58.62 C66.6057869,58.62 66.3457895,58.8599976 66.3457895,59.34 C66.3457895,59.8200024 66.6057869,60.06 67.1257895,60.06 C67.6057919,60.06 67.8457895,59.8200024 67.8457895,59.34 C67.8457895,58.8599976 67.6057919,58.62 67.1257895,58.62 Z M66.5857895,73.5 C66.0657869,73.5 65.8057895,73.7599974 65.8057895,74.28 C65.8057895,74.7600024 66.0657869,75 66.5857895,75 C66.7857905,75 66.9557888,74.9300007 67.0957895,74.79 C67.2357902,74.6499993 67.3057895,74.480001 67.3057895,74.28 C67.3057895,74.079999 67.2357902,73.9000008 67.0957895,73.74 C66.9557888,73.5799992 66.7857905,73.5 66.5857895,73.5 Z M62.5057895,55.56 C61.9857869,55.56 61.7257895,55.8199974 61.7257895,56.34 C61.7257895,56.8200024 61.9857869,57.06 62.5057895,57.06 C62.7057905,57.06 62.8757888,56.9900007 63.0157895,56.85 C63.1557902,56.7099993 63.2257895,56.540001 63.2257895,56.34 C63.2257895,56.139999 63.1557902,55.9600008 63.0157895,55.8 C62.8757888,55.6399992 62.7057905,55.56 62.5057895,55.56 Z M56.6857895,55.02 C56.4857885,55.02 56.3157902,55.0999992 56.1757895,55.26 C56.0357888,55.4200008 55.9657895,55.599999 55.9657895,55.8 C55.9657895,56.000001 56.0357888,56.1699993 56.1757895,56.31 C56.3157902,56.4500007 56.4857885,56.52 56.6857895,56.52 C56.8857905,56.52 57.0657887,56.4500007 57.2257895,56.31 C57.3857903,56.1699993 57.4657895,56.000001 57.4657895,55.8 C57.4657895,55.2799974 57.2057921,55.02 56.6857895,55.02 Z M50.9857895,42.84 C50.4657869,42.84 50.2057895,43.0799976 50.2057895,43.56 C50.2057895,44.0800026 50.4657869,44.34 50.9857895,44.34 C51.4657919,44.34 51.7057895,44.0800026 51.7057895,43.56 C51.7057895,43.0799976 51.4657919,42.84 50.9857895,42.84 Z M51.0457895,48.78 C50.5257869,48.78 50.2657895,49.0199976 50.2657895,49.5 C50.2657895,49.9800024 50.5257869,50.22 51.0457895,50.22 C51.2457905,50.22 51.4157888,50.1500007 51.5557895,50.01 C51.6957902,49.8699993 51.7657895,49.700001 51.7657895,49.5 C51.7657895,49.299999 51.6957902,49.1300007 51.5557895,48.99 C51.4157888,48.8499993 51.2457905,48.78 51.0457895,48.78 Z M51.1657895,56.34 C51.6857921,56.34 51.9457895,56.0800026 51.9457895,55.56 C51.9457895,55.359999 51.8657903,55.1900007 51.7057895,55.05 C51.5457887,54.9099993 51.3657905,54.84 51.1657895,54.84 C50.9657885,54.84 50.7957902,54.9099993 50.6557895,55.05 C50.5157888,55.1900007 50.4457895,55.359999 50.4457895,55.56 C50.4457895,55.760001 50.5157888,55.9399992 50.6557895,56.1 C50.7957902,56.2600008 50.9657885,56.34 51.1657895,56.34 Z M57.0457895,44.34 C57.5257919,44.34 57.7657895,44.0800026 57.7657895,43.56 C57.7657895,43.0799976 57.5257919,42.84 57.0457895,42.84 C56.5257869,42.84 56.2657895,43.0799976 56.2657895,43.56 C56.2657895,44.0800026 56.5257869,44.34 57.0457895,44.34 Z M63.0457895,44.34 C63.5257919,44.34 63.7657895,44.0800026 63.7657895,43.56 C63.7657895,43.0799976 63.5257919,42.84 63.0457895,42.84 C62.5657871,42.84 62.3257895,43.0799976 62.3257895,43.56 C62.3257895,44.0800026 62.5657871,44.34 63.0457895,44.34 Z M68.9857895,44.34 C69.5057921,44.34 69.7657895,44.0800026 69.7657895,43.56 C69.7657895,43.0799976 69.5057921,42.84 68.9857895,42.84 C68.7857885,42.84 68.6157902,42.9099993 68.4757895,43.05 C68.3357888,43.1900007 68.2657895,43.359999 68.2657895,43.56 C68.2657895,43.760001 68.3357888,43.9399992 68.4757895,44.1 C68.6157902,44.2600008 68.7857885,44.34 68.9857895,44.34 Z" id="4" fill="#6BA6FF"></path>
        </g>
    </g>
</svg>