<?xml version="1.0" encoding="UTF-8"?>
<svg width="140px" height="140px" viewBox="0 0 140 140" version="1.1" xmlns="http://www.w3.org/2000/svg" xmlns:xlink="http://www.w3.org/1999/xlink">
    <!-- Generator: Sketch 52 (66869) - http://www.bohemiancoding.com/sketch -->
    <title>Coin 10</title>
    <desc>Created with Sketch.</desc>
    <defs>
        <filter x="-19.2%" y="-19.2%" width="138.3%" height="138.3%" filterUnits="objectBoundingBox" id="filter-1">
            <feOffset dx="0" dy="2" in="SourceAlpha" result="shadowOffsetOuter1"></feOffset>
            <feGaussianBlur stdDeviation="5" in="shadowOffsetOuter1" result="shadowBlurOuter1"></feGaussianBlur>
            <feColorMatrix values="0 0 0 0 0   0 0 0 0 0   0 0 0 0 0  0 0 0 0.5 0" type="matrix" in="shadowBlurOuter1" result="shadowMatrixOuter1"></feColorMatrix>
            <feMerge>
                <feMergeNode in="shadowMatrixOuter1"></feMergeNode>
                <feMergeNode in="SourceGraphic"></feMergeNode>
            </feMerge>
        </filter>
    </defs>
    <g id="Coin-10" stroke="none" stroke-width="1" fill="none" fill-rule="evenodd">
        <g id="Group" transform="translate(10.000000, 10.000000)">
            <g id="blockchain" filter="url(#filter-1)">
                <path d="M60.7441316,20.6172064 C71.4498403,20.6172064 81.1572318,24.8095015 88.1877366,31.5789474 L103.103658,24.0156471 L103.157895,17.1665501 C92.2913157,6.7057251 77.2889833,0 60.7441316,0 L53.6842105,9.85547781 L60.7441316,20.6172064 Z" id="Path" fill="#970012"></path>
                <path d="M60,20.6172064 L60,0 C43.1648758,0 27.8993339,6.7057251 16.8421053,17.1665501 L16.8972933,30.8125283 L32.0749086,31.5789474 C39.2287606,24.8095015 49.1064642,20.6172064 60,20.6172064 Z" id="Path" fill="#D2747F"></path>
                <path d="M31.5789474,31.8122634 L17.1665501,16.8421053 C6.7057251,27.7086843 0,42.7110167 0,59.2558684 L12.1211049,66.3157895 L20.6172064,59.2558684 C20.6172064,48.5501597 24.8095015,38.8427682 31.5789474,31.8122634 Z" id="Path" fill="#970012"></path>
                <path d="M20.6172064,60 L0,60 C0,76.8351242 6.7057251,92.1006661 17.1665501,103.157895 L30.8125283,95.9189223 L31.5789474,87.9250914 C24.8095015,80.7712394 20.6172064,70.8935358 20.6172064,60 Z" id="Path" fill="#D2747F"></path>
                <path d="M59.2558684,99.3827936 C48.5501597,99.3827936 38.8427682,95.1904985 31.8122634,88.4210526 L16.8421053,102.83345 C27.7086843,113.294275 42.7110167,120 59.2558684,120 L66.3157895,111.220695 L59.2558684,99.3827936 Z" id="Path" fill="#970012"></path>
                <path d="M60,120 C76.8351242,120 92.1006661,113.294275 103.157895,102.83345 L97.4155441,90.6034886 L87.9250914,88.4210526 C80.7712394,95.1904985 70.8935358,99.3827936 60,99.3827936 L60,120 Z" id="Path" fill="#D2747F"></path>
                <path d="M120,60.7441316 L110.144522,53.6842105 L99.3827936,60.7441316 C99.3827936,71.4498403 95.1904985,81.1572318 88.4210526,88.1877366 L102.83345,103.157895 C113.294275,92.2913157 120,77.2889833 120,60.7441316 Z" id="Path" fill="#970012"></path>
                <path d="M99.3827936,60 L120,60 C120,43.1648758 113.294275,27.8993339 102.83345,16.8421053 L88.4210526,32.0749086 C95.1904985,39.2287606 99.3827936,49.1064642 99.3827936,60 Z" id="Path" fill="#D2747F"></path>
                <path d="M61.0526316,18.9473684 C37.8243787,18.9473684 18.9473684,37.8243787 18.9473684,61.0526316 C18.9473684,84.2808844 37.8243787,103.157895 61.0526316,103.157895 C84.2808844,103.157895 103.157895,84.2808844 103.157895,61.0526316 C103.157895,37.8243787 84.2808844,18.9473684 61.0526316,18.9473684 Z" id="Path" fill="#43020A"></path>
                <path d="M103.157895,61.0526316 C103.157895,84.2808844 83.8089592,103.157895 60,103.157895 L60,18.9473684 C83.8089592,18.9473684 103.157895,37.8243787 103.157895,61.0526316 Z" id="Path" fill="#43020A"></path>
            </g>
            <path d="M50.8115789,75.54 C50.8115789,78.0600126 51.2715743,79.719996 52.1915789,80.52 C52.3115795,80.6000004 52.3515791,80.6999994 52.3115789,80.82 C52.2715787,80.9400006 52.1715797,81 52.0115789,81 L41.4515789,81 C41.2915781,81 41.1915791,80.9400006 41.1515789,80.82 C41.1115787,80.6999994 41.1515783,80.6000004 41.2715789,80.52 C42.1915835,79.719996 42.6515789,78.0600126 42.6515789,75.54 L42.6515789,48.18 L39.4715789,48.18 C39.2315777,45.1399848 38.2115879,42.5600106 36.4115789,40.44 C36.3315785,40.3599996 36.3015788,40.2700005 36.3215789,40.17 C36.341579,40.0699995 36.4315781,40.02 36.5915789,40.02 L52.0115789,40.02 C52.1715797,40.02 52.2715787,40.0699995 52.3115789,40.17 C52.3515791,40.2700005 52.3115795,40.3799994 52.1915789,40.5 C51.2715743,41.2200036 50.8115789,42.879987 50.8115789,45.48 L50.8115789,75.54 Z M41.4515789,44.76 C41.9715815,44.76 42.2315789,44.5200024 42.2315789,44.04 C42.2315789,43.5199974 41.9715815,43.26 41.4515789,43.26 C40.9715765,43.26 40.7315789,43.5199974 40.7315789,44.04 C40.7315789,44.5200024 40.9715765,44.76 41.4515789,44.76 Z M46.5515789,78.24 C47.0715815,78.24 47.3315789,77.9800026 47.3315789,77.46 C47.3315789,77.259999 47.2515797,77.0900007 47.0915789,76.95 C46.9315781,76.8099993 46.7515799,76.74 46.5515789,76.74 C46.3515779,76.74 46.1815796,76.8099993 46.0415789,76.95 C45.9015782,77.0900007 45.8315789,77.259999 45.8315789,77.46 C45.8315789,77.9800026 46.0715765,78.24 46.5515789,78.24 Z M46.5515789,72.54 C47.0715815,72.54 47.3315789,72.2800026 47.3315789,71.76 C47.3315789,71.2799976 47.0715815,71.04 46.5515789,71.04 C46.0715765,71.04 45.8315789,71.2799976 45.8315789,71.76 C45.8315789,72.2800026 46.0715765,72.54 46.5515789,72.54 Z M46.5515789,67.02 C47.0715815,67.02 47.3315789,66.7800024 47.3315789,66.3 C47.3315789,65.7799974 47.0715815,65.52 46.5515789,65.52 C46.0715765,65.52 45.8315789,65.7799974 45.8315789,66.3 C45.8315789,66.7800024 46.0715765,67.02 46.5515789,67.02 Z M46.5515789,61.5 C47.0715815,61.5 47.3315789,61.2400026 47.3315789,60.72 C47.3315789,60.2399976 47.0715815,60 46.5515789,60 C46.0715765,60 45.8315789,60.2399976 45.8315789,60.72 C45.8315789,61.2400026 46.0715765,61.5 46.5515789,61.5 Z M46.6115789,55.86 C47.1315815,55.86 47.3915789,55.6200024 47.3915789,55.14 C47.3915789,54.6199974 47.1315815,54.36 46.6115789,54.36 C46.1315765,54.36 45.8915789,54.6199974 45.8915789,55.14 C45.8915789,55.6200024 46.1315765,55.86 46.6115789,55.86 Z M45.8315789,49.56 C45.8315789,50.0800026 46.0715765,50.34 46.5515789,50.34 C47.0715815,50.34 47.3315789,50.0800026 47.3315789,49.56 C47.3315789,49.359999 47.2515797,49.1900007 47.0915789,49.05 C46.9315781,48.9099993 46.7515799,48.84 46.5515789,48.84 C46.3515779,48.84 46.1815796,48.9099993 46.0415789,49.05 C45.9015782,49.1900007 45.8315789,49.359999 45.8315789,49.56 Z M46.6115789,44.76 C47.1315815,44.76 47.3915789,44.5200024 47.3915789,44.04 C47.3915789,43.5199974 47.1315815,43.26 46.6115789,43.26 C46.1315765,43.26 45.8915789,43.5199974 45.8915789,44.04 C45.8915789,44.5200024 46.1315765,44.76 46.6115789,44.76 Z M70.82,40.38 C72.7000094,40.38 74.4699917,40.7399964 76.13,41.46 C77.7900083,42.1800036 79.2399938,43.1599938 80.48,44.4 C81.7200062,45.6400062 82.6999964,47.0899917 83.42,48.75 C84.1400036,50.4100083 84.5,52.1799906 84.5,54.06 L84.5,67.74 C84.5,69.6200094 84.1400036,71.3899917 83.42,73.05 C82.6999964,74.7100083 81.7200062,76.1599938 80.48,77.4 C79.2399938,78.6400062 77.7900083,79.6099965 76.13,80.31 C74.4699917,81.0100035 72.7000094,81.36 70.82,81.36 L68.12,81.36 C66.2399906,81.36 64.4700083,81.0100035 62.81,80.31 C61.1499917,79.6099965 59.7000062,78.6400062 58.46,77.4 C57.2199938,76.1599938 56.2400036,74.7100083 55.52,73.05 C54.7999964,71.3899917 54.44,69.6200094 54.44,67.74 L54.44,54.06 C54.44,52.1799906 54.7999964,50.4100083 55.52,48.75 C56.2400036,47.0899917 57.2199938,45.6400062 58.46,44.4 C59.7000062,43.1599938 61.1499917,42.1800036 62.81,41.46 C64.4700083,40.7399964 66.2399906,40.38 68.12,40.38 L70.82,40.38 Z M81.02,56.7 C81.02,56.499999 80.9400008,56.3300007 80.78,56.19 C80.6199992,56.0499993 80.440001,55.98 80.24,55.98 C80.039999,55.98 79.8700007,56.0499993 79.73,56.19 C79.5899993,56.3300007 79.52,56.499999 79.52,56.7 C79.52,56.900001 79.5899993,57.0799992 79.73,57.24 C79.8700007,57.4000008 80.039999,57.48 80.24,57.48 C80.7600026,57.48 81.02,57.2200026 81.02,56.7 Z M81.02,61.74 C81.02,61.2599976 80.7600026,61.02 80.24,61.02 C79.7599976,61.02 79.52,61.2599976 79.52,61.74 C79.52,62.2600026 79.7599976,62.52 80.24,62.52 C80.7600026,62.52 81.02,62.2600026 81.02,61.74 Z M79.52,50.46 C79.319999,50.46 79.1500007,50.5299993 79.01,50.67 C78.8699993,50.8100007 78.8,50.979999 78.8,51.18 C78.8,51.380001 78.8699993,51.5599992 79.01,51.72 C79.1500007,51.8800008 79.319999,51.96 79.52,51.96 C80.0400026,51.96 80.3,51.7000026 80.3,51.18 C80.3,50.6999976 80.0400026,50.46 79.52,50.46 Z M72.32,43.92 C72.119999,43.92 71.9500007,43.9999992 71.81,44.16 C71.6699993,44.3200008 71.6,44.499999 71.6,44.7 C71.6,44.900001 71.6699993,45.0699993 71.81,45.21 C71.9500007,45.3500007 72.119999,45.42 72.32,45.42 C72.520001,45.42 72.6999992,45.3500007 72.86,45.21 C73.0200008,45.0699993 73.1,44.900001 73.1,44.7 C73.1,44.1799974 72.8400026,43.92 72.32,43.92 Z M66.26,43.56 C65.7799976,43.56 65.54,43.8199974 65.54,44.34 C65.54,44.8200024 65.7799976,45.06 66.26,45.06 C66.7800026,45.06 67.04,44.8200024 67.04,44.34 C67.04,43.8199974 66.7800026,43.56 66.26,43.56 Z M58.82,69.42 C59.3400026,69.42 59.6,69.1800024 59.6,68.7 C59.6,68.1799974 59.3400026,67.92 58.82,67.92 C58.619999,67.92 58.4500007,67.9999992 58.31,68.16 C58.1699993,68.3200008 58.1,68.499999 58.1,68.7 C58.1,68.900001 58.1699993,69.0699993 58.31,69.21 C58.4500007,69.3500007 58.619999,69.42 58.82,69.42 Z M57.92,63.06 C57.92,63.5400024 58.1599976,63.78 58.64,63.78 C59.1600026,63.78 59.42,63.5400024 59.42,63.06 C59.42,62.5399974 59.1600026,62.28 58.64,62.28 C58.1599976,62.28 57.92,62.5399974 57.92,63.06 Z M58.82,58.62 C59.3400026,58.62 59.6,58.3600026 59.6,57.84 C59.6,57.3599976 59.3400026,57.12 58.82,57.12 C58.619999,57.12 58.4500007,57.1899993 58.31,57.33 C58.1699993,57.4700007 58.1,57.639999 58.1,57.84 C58.1,58.040001 58.1699993,58.2199992 58.31,58.38 C58.4500007,58.5400008 58.619999,58.62 58.82,58.62 Z M59.24,52.8 C59.7200024,52.8 59.96,52.5400026 59.96,52.02 C59.96,51.5399976 59.7200024,51.3 59.24,51.3 C58.7199974,51.3 58.46,51.5399976 58.46,52.02 C58.46,52.5400026 58.7199974,52.8 59.24,52.8 Z M60.74,74.4 C61.2200024,74.4 61.46,74.1600024 61.46,73.68 C61.46,73.1599974 61.2200024,72.9 60.74,72.9 C60.2599976,72.9 60.02,73.1599974 60.02,73.68 C60.02,74.1600024 60.2599976,74.4 60.74,74.4 Z M61.46,47.52 C61.7000012,47.52 61.8899993,47.4500007 62.03,47.31 C62.1700007,47.1699993 62.24,47.000001 62.24,46.8 C62.24,46.2799974 61.9800026,46.02 61.46,46.02 C61.259999,46.02 61.0900007,46.0899993 60.95,46.23 C60.8099993,46.3700007 60.74,46.5599988 60.74,46.8 C60.74,47.000001 60.8099993,47.1699993 60.95,47.31 C61.0900007,47.4500007 61.259999,47.52 61.46,47.52 Z M65.54,77.4 C66.0200024,77.4 66.26,77.1600024 66.26,76.68 C66.26,76.1999976 66.0200024,75.96 65.54,75.96 C65.0199974,75.96 64.76,76.1999976 64.76,76.68 C64.76,77.1600024 65.0199974,77.4 65.54,77.4 Z M70.82,77.94 C71.3000024,77.94 71.54,77.7000024 71.54,77.22 C71.54,76.7399976 71.3000024,76.5 70.82,76.5 C70.2999974,76.5 70.04,76.7399976 70.04,77.22 C70.04,77.7000024 70.2999974,77.94 70.82,77.94 Z M70.82,73.2 C72.3400076,73.2 73.6299947,72.6700053 74.69,71.61 C75.7500053,70.5499947 76.28,69.2600076 76.28,67.74 L76.28,54.06 C76.28,52.5399924 75.7500053,51.2500053 74.69,50.19 C73.6299947,49.1299947 72.3400076,48.6 70.82,48.6 L68.12,48.6 C67.3599962,48.6 66.6500033,48.7399986 65.99,49.02 C65.3299967,49.3000014 64.7500025,49.6899975 64.25,50.19 C63.7499975,50.6900025 63.3600014,51.2699967 63.08,51.93 C62.7999986,52.5900033 62.66,53.2999962 62.66,54.06 L62.66,67.74 C62.66,68.5000038 62.7999986,69.2099967 63.08,69.87 C63.3600014,70.5300033 63.7499975,71.1099975 64.25,71.61 C64.7500025,72.1100025 65.3299967,72.4999986 65.99,72.78 C66.6500033,73.0600014 67.3599962,73.2 68.12,73.2 L70.82,73.2 Z M75.68,76.68 C75.880001,76.68 76.0599992,76.6100007 76.22,76.47 C76.3800008,76.3299993 76.46,76.160001 76.46,75.96 C76.46,75.4399974 76.2000026,75.18 75.68,75.18 C75.479999,75.18 75.3100007,75.2499993 75.17,75.39 C75.0299993,75.5300007 74.96,75.7199988 74.96,75.96 C74.96,76.160001 75.0299993,76.3299993 75.17,76.47 C75.3100007,76.6100007 75.479999,76.68 75.68,76.68 Z M77.24,47.28 C77.7600026,47.28 78.02,47.0200026 78.02,46.5 C78.02,46.0199976 77.7600026,45.78 77.24,45.78 C76.7599976,45.78 76.52,46.0199976 76.52,46.5 C76.52,47.0200026 76.7599976,47.28 77.24,47.28 Z M79.1,72.24 C79.5800024,72.24 79.82,71.9800026 79.82,71.46 C79.82,70.9799976 79.5800024,70.74 79.1,70.74 C78.6199976,70.74 78.38,70.9799976 78.38,71.46 C78.38,71.9800026 78.6199976,72.24 79.1,72.24 Z M80.42,67.5 C80.9400026,67.5 81.2,67.2600024 81.2,66.78 C81.2,66.2999976 80.9400026,66.06 80.42,66.06 C79.9399976,66.06 79.7,66.2999976 79.7,66.78 C79.7,67.2600024 79.9399976,67.5 80.42,67.5 Z" id="10" fill="#D2747F"></path>
        </g>
    </g>
</svg>