<?xml version="1.0" encoding="UTF-8"?>
<svg width="140px" height="138px" viewBox="0 0 140 138" version="1.1" xmlns="http://www.w3.org/2000/svg" xmlns:xlink="http://www.w3.org/1999/xlink">
    <!-- Generator: Sketch 52 (66869) - http://www.bohemiancoding.com/sketch -->
    <title>Group</title>
    <desc>Created with Sketch.</desc>
    <defs>
        <filter x="-19.2%" y="-19.2%" width="138.3%" height="138.3%" filterUnits="objectBoundingBox" id="filter-1">
            <feOffset dx="0" dy="2" in="SourceAlpha" result="shadowOffsetOuter1"></feOffset>
            <feGaussianBlur stdDeviation="5" in="shadowOffsetOuter1" result="shadowBlurOuter1"></feGaussianBlur>
            <feColorMatrix values="0 0 0 0 0   0 0 0 0 0   0 0 0 0 0  0 0 0 0.5 0" type="matrix" in="shadowBlurOuter1" result="shadowMatrixOuter1"></feColorMatrix>
            <feMerge>
                <feMergeNode in="shadowMatrixOuter1"></feMergeNode>
                <feMergeNode in="SourceGraphic"></feMergeNode>
            </feMerge>
        </filter>
    </defs>
    <g id="Page-1" stroke="none" stroke-width="1" fill="none" fill-rule="evenodd">
        <g id="Coin-1" transform="translate(0.000000, -2.000000)">
            <g id="Group" transform="translate(10.000000, 10.000000)">
                <g id="blockchain" filter="url(#filter-1)">
                    <path d="M60.7441316,20.6172064 C71.4498403,20.6172064 81.1572318,24.8095015 88.1877366,31.5789474 L103.103658,24.0156471 L103.157895,17.1665501 C92.2913157,6.7057251 77.2889833,0 60.7441316,0 L53.6842105,9.85547781 L60.7441316,20.6172064 Z" id="Path" fill="#D0D0D0"></path>
                    <path d="M60,20.6172064 L60,0 C43.1648758,0 27.8993339,6.7057251 16.8421053,17.1665501 L16.8972933,30.8125283 L32.0749086,31.5789474 C39.2287606,24.8095015 49.1064642,20.6172064 60,20.6172064 Z" id="Path" fill="#FFFFFF"></path>
                    <path d="M31.5789474,31.8122634 L17.1665501,16.8421053 C6.7057251,27.7086843 0,42.7110167 0,59.2558684 L12.1211049,66.3157895 L20.6172064,59.2558684 C20.6172064,48.5501597 24.8095015,38.8427682 31.5789474,31.8122634 Z" id="Path" fill="#D0D0D0"></path>
                    <path d="M20.6172064,60 L0,60 C0,76.8351242 6.7057251,92.1006661 17.1665501,103.157895 L30.8125283,95.9189223 L31.5789474,87.9250914 C24.8095015,80.7712394 20.6172064,70.8935358 20.6172064,60 Z" id="Path" fill="#FFFFFF"></path>
                    <path d="M59.2558684,99.3827936 C48.5501597,99.3827936 38.8427682,95.1904985 31.8122634,88.4210526 L16.8421053,102.83345 C27.7086843,113.294275 42.7110167,120 59.2558684,120 L66.3157895,111.220695 L59.2558684,99.3827936 Z" id="Path" fill="#D0D0D0"></path>
                    <path d="M60,120 C76.8351242,120 92.1006661,113.294275 103.157895,102.83345 L97.4155441,90.6034886 L87.9250914,88.4210526 C80.7712394,95.1904985 70.8935358,99.3827936 60,99.3827936 L60,120 Z" id="Path" fill="#FFFFFF"></path>
                    <path d="M120,60.7441316 L110.144522,53.6842105 L99.3827936,60.7441316 C99.3827936,71.4498403 95.1904985,81.1572318 88.4210526,88.1877366 L102.83345,103.157895 C113.294275,92.2913157 120,77.2889833 120,60.7441316 Z" id="Path" fill="#D0D0D0"></path>
                    <path d="M99.3827936,60 L120,60 C120,43.1648758 113.294275,27.8993339 102.83345,16.8421053 L88.4210526,32.0749086 C95.1904985,39.2287606 99.3827936,49.1064642 99.3827936,60 Z" id="Path" fill="#FFFFFF"></path>
                    <path d="M61.0526316,18.9473684 C37.8243787,18.9473684 18.9473684,37.8243787 18.9473684,61.0526316 C18.9473684,84.2808844 37.8243787,103.157895 61.0526316,103.157895 C84.2808844,103.157895 103.157895,84.2808844 103.157895,61.0526316 C103.157895,37.8243787 84.2808844,18.9473684 61.0526316,18.9473684 Z" id="Path" fill="#8F8F8F"></path>
                    <path d="M103.157895,61.0526316 C103.157895,84.2808844 83.8089592,103.157895 60,103.157895 L60,18.9473684 C83.8089592,18.9473684 103.157895,37.8243787 103.157895,61.0526316 Z" id="Path" fill="#8F8F8F"></path>
                </g>
                <path d="M66.5857895,75.54 C66.5857895,78.0600126 67.0457849,79.719996 67.9657895,80.52 C68.0857901,80.6000004 68.1257897,80.6999994 68.0857895,80.82 C68.0457893,80.9400006 67.9457903,81 67.7857895,81 L57.2257895,81 C57.0657887,81 56.9657897,80.9400006 56.9257895,80.82 C56.8857893,80.6999994 56.9257889,80.6000004 57.0457895,80.52 C57.9657941,79.719996 58.4257895,78.0600126 58.4257895,75.54 L58.4257895,48.18 L55.2457895,48.18 C55.0057883,45.1399848 53.9857985,42.5600106 52.1857895,40.44 C52.1057891,40.3599996 52.0757894,40.2700005 52.0957895,40.17 C52.1157896,40.0699995 52.2057887,40.02 52.3657895,40.02 L67.7857895,40.02 C67.9457903,40.02 68.0457893,40.0699995 68.0857895,40.17 C68.1257897,40.2700005 68.0857901,40.3799994 67.9657895,40.5 C67.0457849,41.2200036 66.5857895,42.879987 66.5857895,45.48 L66.5857895,75.54 Z M57.2257895,44.76 C57.7457921,44.76 58.0057895,44.5200024 58.0057895,44.04 C58.0057895,43.5199974 57.7457921,43.26 57.2257895,43.26 C56.7457871,43.26 56.5057895,43.5199974 56.5057895,44.04 C56.5057895,44.5200024 56.7457871,44.76 57.2257895,44.76 Z M62.3257895,78.24 C62.8457921,78.24 63.1057895,77.9800026 63.1057895,77.46 C63.1057895,77.259999 63.0257903,77.0900007 62.8657895,76.95 C62.7057887,76.8099993 62.5257905,76.74 62.3257895,76.74 C62.1257885,76.74 61.9557902,76.8099993 61.8157895,76.95 C61.6757888,77.0900007 61.6057895,77.259999 61.6057895,77.46 C61.6057895,77.9800026 61.8457871,78.24 62.3257895,78.24 Z M62.3257895,72.54 C62.8457921,72.54 63.1057895,72.2800026 63.1057895,71.76 C63.1057895,71.2799976 62.8457921,71.04 62.3257895,71.04 C61.8457871,71.04 61.6057895,71.2799976 61.6057895,71.76 C61.6057895,72.2800026 61.8457871,72.54 62.3257895,72.54 Z M62.3257895,67.02 C62.8457921,67.02 63.1057895,66.7800024 63.1057895,66.3 C63.1057895,65.7799974 62.8457921,65.52 62.3257895,65.52 C61.8457871,65.52 61.6057895,65.7799974 61.6057895,66.3 C61.6057895,66.7800024 61.8457871,67.02 62.3257895,67.02 Z M62.3257895,61.5 C62.8457921,61.5 63.1057895,61.2400026 63.1057895,60.72 C63.1057895,60.2399976 62.8457921,60 62.3257895,60 C61.8457871,60 61.6057895,60.2399976 61.6057895,60.72 C61.6057895,61.2400026 61.8457871,61.5 62.3257895,61.5 Z M62.3857895,55.86 C62.9057921,55.86 63.1657895,55.6200024 63.1657895,55.14 C63.1657895,54.6199974 62.9057921,54.36 62.3857895,54.36 C61.9057871,54.36 61.6657895,54.6199974 61.6657895,55.14 C61.6657895,55.6200024 61.9057871,55.86 62.3857895,55.86 Z M61.6057895,49.56 C61.6057895,50.0800026 61.8457871,50.34 62.3257895,50.34 C62.8457921,50.34 63.1057895,50.0800026 63.1057895,49.56 C63.1057895,49.359999 63.0257903,49.1900007 62.8657895,49.05 C62.7057887,48.9099993 62.5257905,48.84 62.3257895,48.84 C62.1257885,48.84 61.9557902,48.9099993 61.8157895,49.05 C61.6757888,49.1900007 61.6057895,49.359999 61.6057895,49.56 Z M62.3857895,44.76 C62.9057921,44.76 63.1657895,44.5200024 63.1657895,44.04 C63.1657895,43.5199974 62.9057921,43.26 62.3857895,43.26 C61.9057871,43.26 61.6657895,43.5199974 61.6657895,44.04 C61.6657895,44.5200024 61.9057871,44.76 62.3857895,44.76 Z" id="1" fill="#FFFFFF"></path>
            </g>
        </g>
    </g>
</svg>